<?xml version="1.0" standalone="no"?>
<!DOCTYPE svg PUBLIC "-//W3C//DTD SVG 20010904//EN"
 "http://www.w3.org/TR/2001/REC-SVG-20010904/DTD/svg10.dtd">
<svg version="1.0" xmlns="http://www.w3.org/2000/svg"
 width="128.000000pt" height="128.000000pt" viewBox="0 0 128.000000 128.000000"
 preserveAspectRatio="xMidYMid meet">
<metadata>
Created by potrace 1.14, written by Peter Selinger 2001-2017
</metadata>
<g transform="translate(0.000000,128.000000) scale(0.100000,-0.100000)"
fill="#000000" stroke="none">
<path d="M1170 1269 c0 -6 -6 -9 -14 -6 -8 3 -20 -1 -26 -9 -7 -8 -19 -14 -27
-14 -10 0 -11 -5 -4 -19 10 -18 6 -31 -11 -31 -5 0 -6 5 -3 10 9 15 -4 30 -20
23 -17 -6 -21 -33 -5 -33 6 0 10 -4 10 -10 0 -5 -7 -10 -16 -10 -8 0 -13 4
-10 9 3 5 -2 15 -10 22 -15 12 -16 10 -10 -19 5 -21 4 -32 -3 -32 -6 0 -11 9
-11 20 0 23 -13 26 -29 6 -10 -11 -9 -16 4 -23 15 -9 15 -11 1 -22 -9 -8 -16
-21 -16 -31 0 -15 -81 -96 -342 -342 -54 -52 -68 -57 -92 -32 -23 23 -19 63
10 105 35 50 29 73 -18 77 -30 3 -44 -3 -75 -32 -22 -19 -48 -52 -59 -73 -66
-129 -97 -157 -221 -197 -103 -34 -173 -113 -173 -195 0 -36 30 -132 47 -149
7 -8 10 -18 7 -24 -4 -7 -2 -8 4 -4 7 4 12 4 12 -1 0 -4 18 -27 40 -51 40 -42
51 -60 28 -46 -7 4 -8 3 -4 -5 4 -6 12 -9 17 -6 12 8 40 -20 31 -30 -4 -4 1
-5 10 -3 9 1 24 -6 33 -17 9 -11 14 -13 10 -5 -4 10 -2 9 8 -2 8 -10 17 -15
20 -11 4 3 7 1 7 -5 0 -6 9 -9 20 -7 11 2 20 0 20 -4 0 -4 19 -6 43 -5 23 1
42 2 42 4 0 1 10 3 23 6 17 3 21 0 16 -8 -4 -8 -3 -10 2 -5 5 5 9 14 9 20 0 7
10 13 23 15 12 2 20 8 16 13 -3 5 6 23 20 40 14 17 26 34 26 39 0 4 8 25 17
46 19 45 20 47 22 74 1 28 63 88 98 96 38 10 100 50 113 73 15 30 12 78 -6 85
-8 3 -32 -2 -52 -12 -20 -10 -41 -18 -47 -17 -20 2 -55 26 -65 45 -9 17 8 38
129 162 76 79 172 177 212 219 79 81 104 99 141 99 17 0 34 15 61 54 30 45 43
55 70 58 68 6 74 108 7 108 -17 0 -29 4 -26 9 3 5 -1 12 -10 15 -21 8 -24 8
-24 -5z m15 -29 c-3 -5 -11 -10 -16 -10 -6 0 -7 5 -4 10 3 6 11 10 16 10 6 0
7 -4 4 -10z m-41 -21 c-8 -14 -24 -10 -24 6 0 9 6 12 15 9 8 -4 12 -10 9 -15z"/>
<path d="M585 282 c3 -3 19 -7 36 -8 17 -2 28 0 25 3 -3 3 -19 7 -36 8 -17 1
-28 0 -25 -3z"/>
<path d="M570 219 c0 -5 5 -7 10 -4 6 3 10 8 10 11 0 2 -4 4 -10 4 -5 0 -10
-5 -10 -11z"/>
<path d="M70 196 c0 -2 8 -10 18 -17 15 -13 16 -12 3 4 -13 16 -21 21 -21 13z"/>
<path d="M550 189 c0 -5 5 -7 10 -4 6 3 10 8 10 11 0 2 -4 4 -10 4 -5 0 -10
-5 -10 -11z"/>
<path d="M546 158 c3 -5 10 -6 15 -3 13 9 11 12 -6 12 -8 0 -12 -4 -9 -9z"/>
</g>
</svg>
